<svg xmlns="http://www.w3.org/2000/svg" width="32" height="32" style="background:#000000"><path d="M9 0h1v1H9zM11 0h2v1H11zM19 0h2v1H19zM22 0h1v1H22zM14 4h1v1H14zM17 4h1v1H17zM4 5h1v1H4zM27 5h1v1H27zM4 6h1v1H4zM27 6h1v1H27zM5 7h1v1H5zM26 7h1v1H26zM8 10h2v1H8zM12 10h1v1H12zM19 10h1v1H19zM22 10h2v1H22zM8 11h2v1H8zM11 11h2v1H11zM14 11h1v1H14zM17 11h1v1H17zM19 11h2v1H19zM22 11h2v1H22zM11 12h3v1H11zM18 12h3v1H18zM13 13h1v1H13zM18 13h1v1H18zM8 14h1v1H8zM15 14h2v1H15zM23 14h1v1H23zM8 15h3v1H8zM14 15h4v1H14zM21 15h3v1H21zM7 16h1v1H7zM10 16h1v1H10zM13 16h1v1H13zM15 16h2v1H15zM18 16h1v1H18zM21 16h1v1H21zM24 16h1v1H24zM7 17h2v1H7zM12 17h2v1H12zM15 17h2v1H15zM18 17h2v1H18zM23 17h2v1H23zM5 18h1v1H5zM11 18h2v1H11zM14 18h1v1H14zM17 18h1v1H17zM19 18h2v1H19zM26 18h1v1H26zM6 19h1v1H6zM11 19h1v1H11zM15 19h2v1H15zM20 19h1v1H20zM25 19h1v1H25zM7 20h1v1H7zM11 20h3v1H11zM18 20h3v1H18zM24 20h1v1H24zM10 21h1v1H10zM13 21h2v1H13zM17 21h2v1H17zM21 21h1v1H21zM11 22h1v1H11zM13 22h6v1H13zM20 22h1v1H20zM6 23h1v1H6zM10 23h1v1H10zM13 23h2v1H13zM17 23h2v1H17zM21 23h1v1H21zM25 23h1v1H25zM14 24h4v1H14zM4 27h2v1H4zM26 27h2v1H26zM5 28h1v1H5zM26 28h1v1H26zM12 31h1v1H12zM19 31h1v1H19z" fill="#00ff00"/></svg>