<svg xmlns="http://www.w3.org/2000/svg" width="32" height="32" style="background:#000000"><path d="M10 2h1v1H10zM21 2h1v1H21zM12 5h2v1H12zM18 5h2v1H18zM10 6h1v1H10zM13 6h1v1H13zM18 6h1v1H18zM21 6h1v1H21zM9 7h2v1H9zM12 7h8v1H12zM21 7h2v1H21zM8 8h1v1H8zM14 8h1v1H14zM17 8h1v1H17zM23 8h1v1H23zM7 9h1v1H7zM10 9h5v1H10zM17 9h5v1H17zM24 9h1v1H24zM6 10h1v1H6zM8 10h1v1H8zM23 10h1v1H23zM25 10h1v1H25zM8 11h1v1H8zM12 11h1v1H12zM19 11h1v1H19zM23 11h1v1H23zM7 12h1v1H7zM9 12h3v1H9zM20 12h3v1H20zM24 12h1v1H24zM8 13h3v1H8zM12 13h1v1H12zM15 13h2v1H15zM19 13h1v1H19zM21 13h3v1H21zM7 14h2v1H7zM10 14h1v1H10zM12 14h8v1H12zM21 14h1v1H21zM23 14h2v1H23zM10 15h3v1H10zM14 15h4v1H14zM19 15h3v1H19zM8 16h3v1H8zM13 16h1v1H13zM18 16h1v1H18zM21 16h3v1H21zM7 17h3v1H7zM13 17h1v1H13zM18 17h1v1H18zM22 17h3v1H22zM6 18h1v1H6zM8 18h1v1H8zM10 18h5v1H10zM17 18h5v1H17zM23 18h1v1H23zM25 18h1v1H25zM7 19h1v1H7zM10 19h12v1H10zM24 19h1v1H24zM11 20h3v1H11zM18 20h3v1H18zM8 21h1v1H8zM12 21h2v1H12zM15 21h2v1H15zM18 21h2v1H18zM23 21h1v1H23zM5 22h3v1H5zM13 22h6v1H13zM24 22h3v1H24zM5 23h2v1H5zM9 23h3v1H9zM13 23h6v1H13zM20 23h3v1H20zM25 23h2v1H25zM9 24h1v1H9zM11 24h1v1H11zM15 24h2v1H15zM20 24h1v1H20zM22 24h1v1H22zM10 25h1v1H10zM12 25h1v1H12zM15 25h2v1H15zM19 25h1v1H19zM21 25h1v1H21zM12 26h1v1H12zM19 26h1v1H19zM13 31h1v1H13zM18 31h1v1H18z" fill="#00ff00"/></svg>