<svg xmlns="http://www.w3.org/2000/svg" width="32" height="32" style="background:#000000"><path d="M9 0h1v1H9M11 0h2v1H11M19 0h2v1H19M22 0h1v1H22M14 4h1v1H14M17 4h1v1H17M4 5h1v1H4M27 5h1v1H27M4 6h1v1H4M27 6h1v1H27M5 7h1v1H5M26 7h1v1H26M8 10h2v1H8M12 10h1v1H12M19 10h1v1H19M22 10h2v1H22M8 11h2v1H8M11 11h2v1H11M14 11h1v1H14M17 11h1v1H17M19 11h2v1H19M22 11h2v1H22M11 12h3v1H11M18 12h3v1H18M13 13h1v1H13M18 13h1v1H18M8 14h1v1H8M15 14h2v1H15M23 14h1v1H23M8 15h3v1H8M14 15h4v1H14M21 15h3v1H21M7 16h1v1H7M10 16h1v1H10M13 16h1v1H13M15 16h2v1H15M18 16h1v1H18M21 16h1v1H21M24 16h1v1H24M7 17h2v1H7M12 17h2v1H12M15 17h2v1H15M18 17h2v1H18M23 17h2v1H23M5 18h1v1H5M11 18h2v1H11M14 18h1v1H14M17 18h1v1H17M19 18h2v1H19M26 18h1v1H26M6 19h1v1H6M11 19h1v1H11M15 19h2v1H15M20 19h1v1H20M25 19h1v1H25M7 20h1v1H7M11 20h3v1H11M18 20h3v1H18M24 20h1v1H24M10 21h1v1H10M13 21h2v1H13M17 21h2v1H17M21 21h1v1H21M11 22h1v1H11M13 22h6v1H13M20 22h1v1H20M6 23h1v1H6M10 23h1v1H10M13 23h2v1H13M17 23h2v1H17M21 23h1v1H21M25 23h1v1H25M14 24h4v1H14M4 27h2v1H4M26 27h2v1H26M5 28h1v1H5M26 28h1v1H26M12 31h1v1H12M19 31h1v1H19" fill="#00ff00"/></svg>