<svg xmlns="http://www.w3.org/2000/svg" width="32" height="32" style="background:#000000"><path d="M10 2h1v1H10M21 2h1v1H21M12 5h2v1H12M18 5h2v1H18M10 6h1v1H10M13 6h1v1H13M18 6h1v1H18M21 6h1v1H21M9 7h2v1H9M12 7h8v1H12M21 7h2v1H21M8 8h1v1H8M14 8h1v1H14M17 8h1v1H17M23 8h1v1H23M7 9h1v1H7M10 9h5v1H10M17 9h5v1H17M24 9h1v1H24M6 10h1v1H6M8 10h1v1H8M23 10h1v1H23M25 10h1v1H25M8 11h1v1H8M12 11h1v1H12M19 11h1v1H19M23 11h1v1H23M7 12h1v1H7M9 12h3v1H9M20 12h3v1H20M24 12h1v1H24M8 13h3v1H8M12 13h1v1H12M15 13h2v1H15M19 13h1v1H19M21 13h3v1H21M7 14h2v1H7M10 14h1v1H10M12 14h8v1H12M21 14h1v1H21M23 14h2v1H23M10 15h3v1H10M14 15h4v1H14M19 15h3v1H19M8 16h3v1H8M13 16h1v1H13M18 16h1v1H18M21 16h3v1H21M7 17h3v1H7M13 17h1v1H13M18 17h1v1H18M22 17h3v1H22M6 18h1v1H6M8 18h1v1H8M10 18h5v1H10M17 18h5v1H17M23 18h1v1H23M25 18h1v1H25M7 19h1v1H7M10 19h12v1H10M24 19h1v1H24M11 20h3v1H11M18 20h3v1H18M8 21h1v1H8M12 21h2v1H12M15 21h2v1H15M18 21h2v1H18M23 21h1v1H23M5 22h3v1H5M13 22h6v1H13M24 22h3v1H24M5 23h2v1H5M9 23h3v1H9M13 23h6v1H13M20 23h3v1H20M25 23h2v1H25M9 24h1v1H9M11 24h1v1H11M15 24h2v1H15M20 24h1v1H20M22 24h1v1H22M10 25h1v1H10M12 25h1v1H12M15 25h2v1H15M19 25h1v1H19M21 25h1v1H21M12 26h1v1H12M19 26h1v1H19M13 31h1v1H13M18 31h1v1H18" fill="#00ff00"/></svg>