<svg xmlns="http://www.w3.org/2000/svg" width="32" height="32" style="background:#000000"><path d="M10 2h1v1H10z" fill="#00ff00"/><path d="M21 2h1v1H21z" fill="#00ff00"/><path d="M12 5h2v1H12z" fill="#00ff00"/><path d="M18 5h2v1H18z" fill="#00ff00"/><path d="M10 6h1v1H10z" fill="#00ff00"/><path d="M13 6h1v1H13z" fill="#00ff00"/><path d="M18 6h1v1H18z" fill="#00ff00"/><path d="M21 6h1v1H21z" fill="#00ff00"/><path d="M9 7h2v1H9z" fill="#00ff00"/><path d="M12 7h8v1H12z" fill="#00ff00"/><path d="M21 7h2v1H21z" fill="#00ff00"/><path d="M8 8h1v1H8z" fill="#00ff00"/><path d="M14 8h1v1H14z" fill="#00ff00"/><path d="M17 8h1v1H17z" fill="#00ff00"/><path d="M23 8h1v1H23z" fill="#00ff00"/><path d="M7 9h1v1H7z" fill="#00ff00"/><path d="M10 9h5v1H10z" fill="#00ff00"/><path d="M17 9h5v1H17z" fill="#00ff00"/><path d="M24 9h1v1H24z" fill="#00ff00"/><path d="M6 10h1v1H6z" fill="#00ff00"/><path d="M8 10h1v1H8z" fill="#00ff00"/><path d="M23 10h1v1H23z" fill="#00ff00"/><path d="M25 10h1v1H25z" fill="#00ff00"/><path d="M8 11h1v1H8z" fill="#00ff00"/><path d="M12 11h1v1H12z" fill="#00ff00"/><path d="M19 11h1v1H19z" fill="#00ff00"/><path d="M23 11h1v1H23z" fill="#00ff00"/><path d="M7 12h1v1H7z" fill="#00ff00"/><path d="M9 12h3v1H9z" fill="#00ff00"/><path d="M20 12h3v1H20z" fill="#00ff00"/><path d="M24 12h1v1H24z" fill="#00ff00"/><path d="M8 13h3v1H8z" fill="#00ff00"/><path d="M12 13h1v1H12z" fill="#00ff00"/><path d="M15 13h2v1H15z" fill="#00ff00"/><path d="M19 13h1v1H19z" fill="#00ff00"/><path d="M21 13h3v1H21z" fill="#00ff00"/><path d="M7 14h2v1H7z" fill="#00ff00"/><path d="M10 14h1v1H10z" fill="#00ff00"/><path d="M12 14h8v1H12z" fill="#00ff00"/><path d="M21 14h1v1H21z" fill="#00ff00"/><path d="M23 14h2v1H23z" fill="#00ff00"/><path d="M10 15h3v1H10z" fill="#00ff00"/><path d="M14 15h4v1H14z" fill="#00ff00"/><path d="M19 15h3v1H19z" fill="#00ff00"/><path d="M8 16h3v1H8z" fill="#00ff00"/><path d="M13 16h1v1H13z" fill="#00ff00"/><path d="M18 16h1v1H18z" fill="#00ff00"/><path d="M21 16h3v1H21z" fill="#00ff00"/><path d="M7 17h3v1H7z" fill="#00ff00"/><path d="M13 17h1v1H13z" fill="#00ff00"/><path d="M18 17h1v1H18z" fill="#00ff00"/><path d="M22 17h3v1H22z" fill="#00ff00"/><path d="M6 18h1v1H6z" fill="#00ff00"/><path d="M8 18h1v1H8z" fill="#00ff00"/><path d="M10 18h5v1H10z" fill="#00ff00"/><path d="M17 18h5v1H17z" fill="#00ff00"/><path d="M23 18h1v1H23z" fill="#00ff00"/><path d="M25 18h1v1H25z" fill="#00ff00"/><path d="M7 19h1v1H7z" fill="#00ff00"/><path d="M10 19h12v1H10z" fill="#00ff00"/><path d="M24 19h1v1H24z" fill="#00ff00"/><path d="M11 20h3v1H11z" fill="#00ff00"/><path d="M18 20h3v1H18z" fill="#00ff00"/><path d="M8 21h1v1H8z" fill="#00ff00"/><path d="M12 21h2v1H12z" fill="#00ff00"/><path d="M15 21h2v1H15z" fill="#00ff00"/><path d="M18 21h2v1H18z" fill="#00ff00"/><path d="M23 21h1v1H23z" fill="#00ff00"/><path d="M5 22h3v1H5z" fill="#00ff00"/><path d="M13 22h6v1H13z" fill="#00ff00"/><path d="M24 22h3v1H24z" fill="#00ff00"/><path d="M5 23h2v1H5z" fill="#00ff00"/><path d="M9 23h3v1H9z" fill="#00ff00"/><path d="M13 23h6v1H13z" fill="#00ff00"/><path d="M20 23h3v1H20z" fill="#00ff00"/><path d="M25 23h2v1H25z" fill="#00ff00"/><path d="M9 24h1v1H9z" fill="#00ff00"/><path d="M11 24h1v1H11z" fill="#00ff00"/><path d="M15 24h2v1H15z" fill="#00ff00"/><path d="M20 24h1v1H20z" fill="#00ff00"/><path d="M22 24h1v1H22z" fill="#00ff00"/><path d="M10 25h1v1H10z" fill="#00ff00"/><path d="M12 25h1v1H12z" fill="#00ff00"/><path d="M15 25h2v1H15z" fill="#00ff00"/><path d="M19 25h1v1H19z" fill="#00ff00"/><path d="M21 25h1v1H21z" fill="#00ff00"/><path d="M12 26h1v1H12z" fill="#00ff00"/><path d="M19 26h1v1H19z" fill="#00ff00"/><path d="M13 31h1v1H13z" fill="#00ff00"/><path d="M18 31h1v1H18z" fill="#00ff00"/></svg>