<svg xmlns="http://www.w3.org/2000/svg" width="32" height="32" style="background:#000000"><path d="M9 0h1v1H9z" fill="#00ff00"/><path d="M11 0h2v1H11z" fill="#00ff00"/><path d="M19 0h2v1H19z" fill="#00ff00"/><path d="M22 0h1v1H22z" fill="#00ff00"/><path d="M14 4h1v1H14z" fill="#00ff00"/><path d="M17 4h1v1H17z" fill="#00ff00"/><path d="M4 5h1v1H4z" fill="#00ff00"/><path d="M27 5h1v1H27z" fill="#00ff00"/><path d="M4 6h1v1H4z" fill="#00ff00"/><path d="M27 6h1v1H27z" fill="#00ff00"/><path d="M5 7h1v1H5z" fill="#00ff00"/><path d="M26 7h1v1H26z" fill="#00ff00"/><path d="M8 10h2v1H8z" fill="#00ff00"/><path d="M12 10h1v1H12z" fill="#00ff00"/><path d="M19 10h1v1H19z" fill="#00ff00"/><path d="M22 10h2v1H22z" fill="#00ff00"/><path d="M8 11h2v1H8z" fill="#00ff00"/><path d="M11 11h2v1H11z" fill="#00ff00"/><path d="M14 11h1v1H14z" fill="#00ff00"/><path d="M17 11h1v1H17z" fill="#00ff00"/><path d="M19 11h2v1H19z" fill="#00ff00"/><path d="M22 11h2v1H22z" fill="#00ff00"/><path d="M11 12h3v1H11z" fill="#00ff00"/><path d="M18 12h3v1H18z" fill="#00ff00"/><path d="M13 13h1v1H13z" fill="#00ff00"/><path d="M18 13h1v1H18z" fill="#00ff00"/><path d="M8 14h1v1H8z" fill="#00ff00"/><path d="M15 14h2v1H15z" fill="#00ff00"/><path d="M23 14h1v1H23z" fill="#00ff00"/><path d="M8 15h3v1H8z" fill="#00ff00"/><path d="M14 15h4v1H14z" fill="#00ff00"/><path d="M21 15h3v1H21z" fill="#00ff00"/><path d="M7 16h1v1H7z" fill="#00ff00"/><path d="M10 16h1v1H10z" fill="#00ff00"/><path d="M13 16h1v1H13z" fill="#00ff00"/><path d="M15 16h2v1H15z" fill="#00ff00"/><path d="M18 16h1v1H18z" fill="#00ff00"/><path d="M21 16h1v1H21z" fill="#00ff00"/><path d="M24 16h1v1H24z" fill="#00ff00"/><path d="M7 17h2v1H7z" fill="#00ff00"/><path d="M12 17h2v1H12z" fill="#00ff00"/><path d="M15 17h2v1H15z" fill="#00ff00"/><path d="M18 17h2v1H18z" fill="#00ff00"/><path d="M23 17h2v1H23z" fill="#00ff00"/><path d="M5 18h1v1H5z" fill="#00ff00"/><path d="M11 18h2v1H11z" fill="#00ff00"/><path d="M14 18h1v1H14z" fill="#00ff00"/><path d="M17 18h1v1H17z" fill="#00ff00"/><path d="M19 18h2v1H19z" fill="#00ff00"/><path d="M26 18h1v1H26z" fill="#00ff00"/><path d="M6 19h1v1H6z" fill="#00ff00"/><path d="M11 19h1v1H11z" fill="#00ff00"/><path d="M15 19h2v1H15z" fill="#00ff00"/><path d="M20 19h1v1H20z" fill="#00ff00"/><path d="M25 19h1v1H25z" fill="#00ff00"/><path d="M7 20h1v1H7z" fill="#00ff00"/><path d="M11 20h3v1H11z" fill="#00ff00"/><path d="M18 20h3v1H18z" fill="#00ff00"/><path d="M24 20h1v1H24z" fill="#00ff00"/><path d="M10 21h1v1H10z" fill="#00ff00"/><path d="M13 21h2v1H13z" fill="#00ff00"/><path d="M17 21h2v1H17z" fill="#00ff00"/><path d="M21 21h1v1H21z" fill="#00ff00"/><path d="M11 22h1v1H11z" fill="#00ff00"/><path d="M13 22h6v1H13z" fill="#00ff00"/><path d="M20 22h1v1H20z" fill="#00ff00"/><path d="M6 23h1v1H6z" fill="#00ff00"/><path d="M10 23h1v1H10z" fill="#00ff00"/><path d="M13 23h2v1H13z" fill="#00ff00"/><path d="M17 23h2v1H17z" fill="#00ff00"/><path d="M21 23h1v1H21z" fill="#00ff00"/><path d="M25 23h1v1H25z" fill="#00ff00"/><path d="M14 24h4v1H14z" fill="#00ff00"/><path d="M4 27h2v1H4z" fill="#00ff00"/><path d="M26 27h2v1H26z" fill="#00ff00"/><path d="M5 28h1v1H5z" fill="#00ff00"/><path d="M26 28h1v1H26z" fill="#00ff00"/><path d="M12 31h1v1H12z" fill="#00ff00"/><path d="M19 31h1v1H19z" fill="#00ff00"/></svg>