<svg xmlns="http://www.w3.org/2000/svg" version="1.1" width="32" height="32">
<rect x="0" y="0" width="32" height="32" fill="rgb(0,0,0)"/>
<rect x="10" y="2" width="1" height="1" fill="rgb(0,255,0)"/>
<rect x="21" y="2" width="1" height="1" fill="rgb(0,255,0)"/>
<rect x="12" y="5" width="2" height="1" fill="rgb(0,255,0)"/>
<rect x="18" y="5" width="2" height="1" fill="rgb(0,255,0)"/>
<rect x="10" y="6" width="1" height="1" fill="rgb(0,255,0)"/>
<rect x="13" y="6" width="1" height="1" fill="rgb(0,255,0)"/>
<rect x="18" y="6" width="1" height="1" fill="rgb(0,255,0)"/>
<rect x="21" y="6" width="1" height="1" fill="rgb(0,255,0)"/>
<rect x="9" y="7" width="2" height="1" fill="rgb(0,255,0)"/>
<rect x="12" y="7" width="8" height="1" fill="rgb(0,255,0)"/>
<rect x="21" y="7" width="2" height="1" fill="rgb(0,255,0)"/>
<rect x="8" y="8" width="1" height="1" fill="rgb(0,255,0)"/>
<rect x="14" y="8" width="1" height="1" fill="rgb(0,255,0)"/>
<rect x="17" y="8" width="1" height="1" fill="rgb(0,255,0)"/>
<rect x="23" y="8" width="1" height="1" fill="rgb(0,255,0)"/>
<rect x="7" y="9" width="1" height="1" fill="rgb(0,255,0)"/>
<rect x="10" y="9" width="5" height="1" fill="rgb(0,255,0)"/>
<rect x="17" y="9" width="5" height="1" fill="rgb(0,255,0)"/>
<rect x="24" y="9" width="1" height="1" fill="rgb(0,255,0)"/>
<rect x="6" y="10" width="1" height="1" fill="rgb(0,255,0)"/>
<rect x="8" y="10" width="1" height="1" fill="rgb(0,255,0)"/>
<rect x="23" y="10" width="1" height="1" fill="rgb(0,255,0)"/>
<rect x="25" y="10" width="1" height="1" fill="rgb(0,255,0)"/>
<rect x="8" y="11" width="1" height="1" fill="rgb(0,255,0)"/>
<rect x="12" y="11" width="1" height="1" fill="rgb(0,255,0)"/>
<rect x="19" y="11" width="1" height="1" fill="rgb(0,255,0)"/>
<rect x="23" y="11" width="1" height="1" fill="rgb(0,255,0)"/>
<rect x="7" y="12" width="1" height="1" fill="rgb(0,255,0)"/>
<rect x="9" y="12" width="3" height="1" fill="rgb(0,255,0)"/>
<rect x="20" y="12" width="3" height="1" fill="rgb(0,255,0)"/>
<rect x="24" y="12" width="1" height="1" fill="rgb(0,255,0)"/>
<rect x="8" y="13" width="3" height="1" fill="rgb(0,255,0)"/>
<rect x="12" y="13" width="1" height="1" fill="rgb(0,255,0)"/>
<rect x="15" y="13" width="2" height="1" fill="rgb(0,255,0)"/>
<rect x="19" y="13" width="1" height="1" fill="rgb(0,255,0)"/>
<rect x="21" y="13" width="3" height="1" fill="rgb(0,255,0)"/>
<rect x="7" y="14" width="2" height="1" fill="rgb(0,255,0)"/>
<rect x="10" y="14" width="1" height="1" fill="rgb(0,255,0)"/>
<rect x="12" y="14" width="8" height="1" fill="rgb(0,255,0)"/>
<rect x="21" y="14" width="1" height="1" fill="rgb(0,255,0)"/>
<rect x="23" y="14" width="2" height="1" fill="rgb(0,255,0)"/>
<rect x="10" y="15" width="3" height="1" fill="rgb(0,255,0)"/>
<rect x="14" y="15" width="4" height="1" fill="rgb(0,255,0)"/>
<rect x="19" y="15" width="3" height="1" fill="rgb(0,255,0)"/>
<rect x="8" y="16" width="3" height="1" fill="rgb(0,255,0)"/>
<rect x="13" y="16" width="1" height="1" fill="rgb(0,255,0)"/>
<rect x="18" y="16" width="1" height="1" fill="rgb(0,255,0)"/>
<rect x="21" y="16" width="3" height="1" fill="rgb(0,255,0)"/>
<rect x="7" y="17" width="3" height="1" fill="rgb(0,255,0)"/>
<rect x="13" y="17" width="1" height="1" fill="rgb(0,255,0)"/>
<rect x="18" y="17" width="1" height="1" fill="rgb(0,255,0)"/>
<rect x="22" y="17" width="3" height="1" fill="rgb(0,255,0)"/>
<rect x="6" y="18" width="1" height="1" fill="rgb(0,255,0)"/>
<rect x="8" y="18" width="1" height="1" fill="rgb(0,255,0)"/>
<rect x="10" y="18" width="5" height="1" fill="rgb(0,255,0)"/>
<rect x="17" y="18" width="5" height="1" fill="rgb(0,255,0)"/>
<rect x="23" y="18" width="1" height="1" fill="rgb(0,255,0)"/>
<rect x="25" y="18" width="1" height="1" fill="rgb(0,255,0)"/>
<rect x="7" y="19" width="1" height="1" fill="rgb(0,255,0)"/>
<rect x="10" y="19" width="12" height="1" fill="rgb(0,255,0)"/>
<rect x="24" y="19" width="1" height="1" fill="rgb(0,255,0)"/>
<rect x="11" y="20" width="3" height="1" fill="rgb(0,255,0)"/>
<rect x="18" y="20" width="3" height="1" fill="rgb(0,255,0)"/>
<rect x="8" y="21" width="1" height="1" fill="rgb(0,255,0)"/>
<rect x="12" y="21" width="2" height="1" fill="rgb(0,255,0)"/>
<rect x="15" y="21" width="2" height="1" fill="rgb(0,255,0)"/>
<rect x="18" y="21" width="2" height="1" fill="rgb(0,255,0)"/>
<rect x="23" y="21" width="1" height="1" fill="rgb(0,255,0)"/>
<rect x="5" y="22" width="3" height="1" fill="rgb(0,255,0)"/>
<rect x="13" y="22" width="6" height="1" fill="rgb(0,255,0)"/>
<rect x="24" y="22" width="3" height="1" fill="rgb(0,255,0)"/>
<rect x="5" y="23" width="2" height="1" fill="rgb(0,255,0)"/>
<rect x="9" y="23" width="3" height="1" fill="rgb(0,255,0)"/>
<rect x="13" y="23" width="6" height="1" fill="rgb(0,255,0)"/>
<rect x="20" y="23" width="3" height="1" fill="rgb(0,255,0)"/>
<rect x="25" y="23" width="2" height="1" fill="rgb(0,255,0)"/>
<rect x="9" y="24" width="1" height="1" fill="rgb(0,255,0)"/>
<rect x="11" y="24" width="1" height="1" fill="rgb(0,255,0)"/>
<rect x="15" y="24" width="2" height="1" fill="rgb(0,255,0)"/>
<rect x="20" y="24" width="1" height="1" fill="rgb(0,255,0)"/>
<rect x="22" y="24" width="1" height="1" fill="rgb(0,255,0)"/>
<rect x="10" y="25" width="1" height="1" fill="rgb(0,255,0)"/>
<rect x="12" y="25" width="1" height="1" fill="rgb(0,255,0)"/>
<rect x="15" y="25" width="2" height="1" fill="rgb(0,255,0)"/>
<rect x="19" y="25" width="1" height="1" fill="rgb(0,255,0)"/>
<rect x="21" y="25" width="1" height="1" fill="rgb(0,255,0)"/>
<rect x="12" y="26" width="1" height="1" fill="rgb(0,255,0)"/>
<rect x="19" y="26" width="1" height="1" fill="rgb(0,255,0)"/>
<rect x="13" y="31" width="1" height="1" fill="rgb(0,255,0)"/>
<rect x="18" y="31" width="1" height="1" fill="rgb(0,255,0)"/>
</svg>
