<svg xmlns="http://www.w3.org/2000/svg" version="1.1" width="32" height="32">
<rect x="0" y="0" width="32" height="32" fill="rgb(0,0,0)"/>
<rect x="9" y="0" width="1" height="1" fill="rgb(0,255,0)"/>
<rect x="11" y="0" width="1" height="1" fill="rgb(0,255,0)"/>
<rect x="12" y="0" width="1" height="1" fill="rgb(0,255,0)"/>
<rect x="19" y="0" width="1" height="1" fill="rgb(0,255,0)"/>
<rect x="20" y="0" width="1" height="1" fill="rgb(0,255,0)"/>
<rect x="22" y="0" width="1" height="1" fill="rgb(0,255,0)"/>
<rect x="14" y="4" width="1" height="1" fill="rgb(0,255,0)"/>
<rect x="17" y="4" width="1" height="1" fill="rgb(0,255,0)"/>
<rect x="4" y="5" width="1" height="1" fill="rgb(0,255,0)"/>
<rect x="27" y="5" width="1" height="1" fill="rgb(0,255,0)"/>
<rect x="4" y="6" width="1" height="1" fill="rgb(0,255,0)"/>
<rect x="27" y="6" width="1" height="1" fill="rgb(0,255,0)"/>
<rect x="5" y="7" width="1" height="1" fill="rgb(0,255,0)"/>
<rect x="26" y="7" width="1" height="1" fill="rgb(0,255,0)"/>
<rect x="8" y="10" width="1" height="1" fill="rgb(0,255,0)"/>
<rect x="9" y="10" width="1" height="1" fill="rgb(0,255,0)"/>
<rect x="12" y="10" width="1" height="1" fill="rgb(0,255,0)"/>
<rect x="19" y="10" width="1" height="1" fill="rgb(0,255,0)"/>
<rect x="22" y="10" width="1" height="1" fill="rgb(0,255,0)"/>
<rect x="23" y="10" width="1" height="1" fill="rgb(0,255,0)"/>
<rect x="8" y="11" width="1" height="1" fill="rgb(0,255,0)"/>
<rect x="9" y="11" width="1" height="1" fill="rgb(0,255,0)"/>
<rect x="11" y="11" width="1" height="1" fill="rgb(0,255,0)"/>
<rect x="12" y="11" width="1" height="1" fill="rgb(0,255,0)"/>
<rect x="14" y="11" width="1" height="1" fill="rgb(0,255,0)"/>
<rect x="17" y="11" width="1" height="1" fill="rgb(0,255,0)"/>
<rect x="19" y="11" width="1" height="1" fill="rgb(0,255,0)"/>
<rect x="20" y="11" width="1" height="1" fill="rgb(0,255,0)"/>
<rect x="22" y="11" width="1" height="1" fill="rgb(0,255,0)"/>
<rect x="23" y="11" width="1" height="1" fill="rgb(0,255,0)"/>
<rect x="11" y="12" width="1" height="1" fill="rgb(0,255,0)"/>
<rect x="12" y="12" width="1" height="1" fill="rgb(0,255,0)"/>
<rect x="13" y="12" width="1" height="1" fill="rgb(0,255,0)"/>
<rect x="18" y="12" width="1" height="1" fill="rgb(0,255,0)"/>
<rect x="19" y="12" width="1" height="1" fill="rgb(0,255,0)"/>
<rect x="20" y="12" width="1" height="1" fill="rgb(0,255,0)"/>
<rect x="13" y="13" width="1" height="1" fill="rgb(0,255,0)"/>
<rect x="18" y="13" width="1" height="1" fill="rgb(0,255,0)"/>
<rect x="8" y="14" width="1" height="1" fill="rgb(0,255,0)"/>
<rect x="15" y="14" width="1" height="1" fill="rgb(0,255,0)"/>
<rect x="16" y="14" width="1" height="1" fill="rgb(0,255,0)"/>
<rect x="23" y="14" width="1" height="1" fill="rgb(0,255,0)"/>
<rect x="8" y="15" width="1" height="1" fill="rgb(0,255,0)"/>
<rect x="9" y="15" width="1" height="1" fill="rgb(0,255,0)"/>
<rect x="10" y="15" width="1" height="1" fill="rgb(0,255,0)"/>
<rect x="14" y="15" width="1" height="1" fill="rgb(0,255,0)"/>
<rect x="15" y="15" width="1" height="1" fill="rgb(0,255,0)"/>
<rect x="16" y="15" width="1" height="1" fill="rgb(0,255,0)"/>
<rect x="17" y="15" width="1" height="1" fill="rgb(0,255,0)"/>
<rect x="21" y="15" width="1" height="1" fill="rgb(0,255,0)"/>
<rect x="22" y="15" width="1" height="1" fill="rgb(0,255,0)"/>
<rect x="23" y="15" width="1" height="1" fill="rgb(0,255,0)"/>
<rect x="7" y="16" width="1" height="1" fill="rgb(0,255,0)"/>
<rect x="10" y="16" width="1" height="1" fill="rgb(0,255,0)"/>
<rect x="13" y="16" width="1" height="1" fill="rgb(0,255,0)"/>
<rect x="15" y="16" width="1" height="1" fill="rgb(0,255,0)"/>
<rect x="16" y="16" width="1" height="1" fill="rgb(0,255,0)"/>
<rect x="18" y="16" width="1" height="1" fill="rgb(0,255,0)"/>
<rect x="21" y="16" width="1" height="1" fill="rgb(0,255,0)"/>
<rect x="24" y="16" width="1" height="1" fill="rgb(0,255,0)"/>
<rect x="7" y="17" width="1" height="1" fill="rgb(0,255,0)"/>
<rect x="8" y="17" width="1" height="1" fill="rgb(0,255,0)"/>
<rect x="12" y="17" width="1" height="1" fill="rgb(0,255,0)"/>
<rect x="13" y="17" width="1" height="1" fill="rgb(0,255,0)"/>
<rect x="15" y="17" width="1" height="1" fill="rgb(0,255,0)"/>
<rect x="16" y="17" width="1" height="1" fill="rgb(0,255,0)"/>
<rect x="18" y="17" width="1" height="1" fill="rgb(0,255,0)"/>
<rect x="19" y="17" width="1" height="1" fill="rgb(0,255,0)"/>
<rect x="23" y="17" width="1" height="1" fill="rgb(0,255,0)"/>
<rect x="24" y="17" width="1" height="1" fill="rgb(0,255,0)"/>
<rect x="5" y="18" width="1" height="1" fill="rgb(0,255,0)"/>
<rect x="11" y="18" width="1" height="1" fill="rgb(0,255,0)"/>
<rect x="12" y="18" width="1" height="1" fill="rgb(0,255,0)"/>
<rect x="14" y="18" width="1" height="1" fill="rgb(0,255,0)"/>
<rect x="17" y="18" width="1" height="1" fill="rgb(0,255,0)"/>
<rect x="19" y="18" width="1" height="1" fill="rgb(0,255,0)"/>
<rect x="20" y="18" width="1" height="1" fill="rgb(0,255,0)"/>
<rect x="26" y="18" width="1" height="1" fill="rgb(0,255,0)"/>
<rect x="6" y="19" width="1" height="1" fill="rgb(0,255,0)"/>
<rect x="11" y="19" width="1" height="1" fill="rgb(0,255,0)"/>
<rect x="15" y="19" width="1" height="1" fill="rgb(0,255,0)"/>
<rect x="16" y="19" width="1" height="1" fill="rgb(0,255,0)"/>
<rect x="20" y="19" width="1" height="1" fill="rgb(0,255,0)"/>
<rect x="25" y="19" width="1" height="1" fill="rgb(0,255,0)"/>
<rect x="7" y="20" width="1" height="1" fill="rgb(0,255,0)"/>
<rect x="11" y="20" width="1" height="1" fill="rgb(0,255,0)"/>
<rect x="12" y="20" width="1" height="1" fill="rgb(0,255,0)"/>
<rect x="13" y="20" width="1" height="1" fill="rgb(0,255,0)"/>
<rect x="18" y="20" width="1" height="1" fill="rgb(0,255,0)"/>
<rect x="19" y="20" width="1" height="1" fill="rgb(0,255,0)"/>
<rect x="20" y="20" width="1" height="1" fill="rgb(0,255,0)"/>
<rect x="24" y="20" width="1" height="1" fill="rgb(0,255,0)"/>
<rect x="10" y="21" width="1" height="1" fill="rgb(0,255,0)"/>
<rect x="13" y="21" width="1" height="1" fill="rgb(0,255,0)"/>
<rect x="14" y="21" width="1" height="1" fill="rgb(0,255,0)"/>
<rect x="17" y="21" width="1" height="1" fill="rgb(0,255,0)"/>
<rect x="18" y="21" width="1" height="1" fill="rgb(0,255,0)"/>
<rect x="21" y="21" width="1" height="1" fill="rgb(0,255,0)"/>
<rect x="11" y="22" width="1" height="1" fill="rgb(0,255,0)"/>
<rect x="13" y="22" width="1" height="1" fill="rgb(0,255,0)"/>
<rect x="14" y="22" width="1" height="1" fill="rgb(0,255,0)"/>
<rect x="15" y="22" width="1" height="1" fill="rgb(0,255,0)"/>
<rect x="16" y="22" width="1" height="1" fill="rgb(0,255,0)"/>
<rect x="17" y="22" width="1" height="1" fill="rgb(0,255,0)"/>
<rect x="18" y="22" width="1" height="1" fill="rgb(0,255,0)"/>
<rect x="20" y="22" width="1" height="1" fill="rgb(0,255,0)"/>
<rect x="6" y="23" width="1" height="1" fill="rgb(0,255,0)"/>
<rect x="10" y="23" width="1" height="1" fill="rgb(0,255,0)"/>
<rect x="13" y="23" width="1" height="1" fill="rgb(0,255,0)"/>
<rect x="14" y="23" width="1" height="1" fill="rgb(0,255,0)"/>
<rect x="17" y="23" width="1" height="1" fill="rgb(0,255,0)"/>
<rect x="18" y="23" width="1" height="1" fill="rgb(0,255,0)"/>
<rect x="21" y="23" width="1" height="1" fill="rgb(0,255,0)"/>
<rect x="25" y="23" width="1" height="1" fill="rgb(0,255,0)"/>
<rect x="14" y="24" width="1" height="1" fill="rgb(0,255,0)"/>
<rect x="15" y="24" width="1" height="1" fill="rgb(0,255,0)"/>
<rect x="16" y="24" width="1" height="1" fill="rgb(0,255,0)"/>
<rect x="17" y="24" width="1" height="1" fill="rgb(0,255,0)"/>
<rect x="4" y="27" width="1" height="1" fill="rgb(0,255,0)"/>
<rect x="5" y="27" width="1" height="1" fill="rgb(0,255,0)"/>
<rect x="26" y="27" width="1" height="1" fill="rgb(0,255,0)"/>
<rect x="27" y="27" width="1" height="1" fill="rgb(0,255,0)"/>
<rect x="5" y="28" width="1" height="1" fill="rgb(0,255,0)"/>
<rect x="26" y="28" width="1" height="1" fill="rgb(0,255,0)"/>
<rect x="12" y="31" width="1" height="1" fill="rgb(0,255,0)"/>
<rect x="19" y="31" width="1" height="1" fill="rgb(0,255,0)"/>
</svg>
